<mxfile host="app.diagrams.net" modified="2024-03-14T12:46:11.264Z" agent="Mozilla/5.0 (Macintosh; Intel Mac OS X 10_15_7) AppleWebKit/537.36 (KHTML, like Gecko) Chrome/122.0.0.0 Safari/537.36" etag="7sEf0NzIbPiZzNSrBb93" version="24.0.6" type="github">
  <diagram name="Page-1" id="-fn5m8vdHcQ7IxiWaMN8">
    <mxGraphModel dx="641" dy="565" grid="1" gridSize="10" guides="1" tooltips="1" connect="1" arrows="1" fold="1" page="1" pageScale="1" pageWidth="850" pageHeight="1100" math="0" shadow="0">
      <root>
        <mxCell id="0" />
        <mxCell id="1" parent="0" />
        <mxCell id="MKVrQmzyJk6rCKhsBumI-4" value="Bruker" style="shape=actor;whiteSpace=wrap;html=1;sketch=1;curveFitting=1;jiggle=2;labelBackgroundColor=none;rounded=1;" parent="1" vertex="1">
          <mxGeometry x="70" y="100" width="40" height="60" as="geometry" />
        </mxCell>
        <mxCell id="MKVrQmzyJk6rCKhsBumI-6" value="" style="endArrow=classic;startArrow=classic;html=1;rounded=1;sketch=1;curveFitting=1;jiggle=2;labelBackgroundColor=none;fontColor=default;" parent="1" edge="1">
          <mxGeometry width="50" height="50" relative="1" as="geometry">
            <mxPoint x="130" y="134.5" as="sourcePoint" />
            <mxPoint x="240" y="134.5" as="targetPoint" />
          </mxGeometry>
        </mxCell>
        <mxCell id="MKVrQmzyJk6rCKhsBumI-8" value="" style="ellipse;shape=cloud;whiteSpace=wrap;html=1;sketch=1;curveFitting=1;jiggle=2;labelBackgroundColor=none;rounded=1;" parent="1" vertex="1">
          <mxGeometry x="420" y="40" width="330" height="180" as="geometry" />
        </mxCell>
        <mxCell id="MKVrQmzyJk6rCKhsBumI-9" value="Spotify server" style="shape=cube;whiteSpace=wrap;html=1;boundedLbl=1;backgroundOutline=1;darkOpacity=0.05;darkOpacity2=0.1;sketch=1;curveFitting=1;jiggle=2;labelBackgroundColor=none;rounded=1;" parent="1" vertex="1">
          <mxGeometry x="490" y="120" width="110" height="40" as="geometry" />
        </mxCell>
        <mxCell id="MKVrQmzyJk6rCKhsBumI-10" value="Spotify db" style="shape=cylinder3;whiteSpace=wrap;html=1;boundedLbl=1;backgroundOutline=1;size=15;sketch=1;curveFitting=1;jiggle=2;labelBackgroundColor=none;rounded=1;" parent="1" vertex="1">
          <mxGeometry x="640" y="100" width="50" height="70" as="geometry" />
        </mxCell>
        <mxCell id="MKVrQmzyJk6rCKhsBumI-11" value="terminal" style="shape=note;whiteSpace=wrap;html=1;backgroundOutline=1;darkOpacity=0.05;sketch=1;curveFitting=1;jiggle=2;labelBackgroundColor=none;rounded=1;" parent="1" vertex="1">
          <mxGeometry x="260" y="95" width="60" height="80" as="geometry" />
        </mxCell>
        <mxCell id="MKVrQmzyJk6rCKhsBumI-12" value="" style="endArrow=classic;startArrow=classic;html=1;rounded=1;sketch=1;curveFitting=1;jiggle=2;labelBackgroundColor=none;fontColor=default;" parent="1" edge="1">
          <mxGeometry width="50" height="50" relative="1" as="geometry">
            <mxPoint x="330" y="134.5" as="sourcePoint" />
            <mxPoint x="440" y="134.5" as="targetPoint" />
          </mxGeometry>
        </mxCell>
        <mxCell id="MKVrQmzyJk6rCKhsBumI-13" value="" style="endArrow=classic;startArrow=classic;html=1;rounded=1;exitX=0;exitY=0;exitDx=110;exitDy=20;exitPerimeter=0;sketch=1;curveFitting=1;jiggle=2;labelBackgroundColor=none;fontColor=default;" parent="1" edge="1">
          <mxGeometry width="50" height="50" relative="1" as="geometry">
            <mxPoint x="605" y="143" as="sourcePoint" />
            <mxPoint x="635" y="143" as="targetPoint" />
          </mxGeometry>
        </mxCell>
        <mxCell id="MKVrQmzyJk6rCKhsBumI-14" value="user" style="swimlane;fontStyle=0;childLayout=stackLayout;horizontal=1;startSize=30;horizontalStack=0;resizeParent=1;resizeParentMax=0;resizeLast=0;collapsible=1;marginBottom=0;whiteSpace=wrap;html=1;sketch=1;curveFitting=1;jiggle=2;labelBackgroundColor=none;rounded=1;" parent="1" vertex="1">
          <mxGeometry x="60" y="290" width="140" height="180" as="geometry">
            <mxRectangle x="60" y="470" width="60" height="30" as="alternateBounds" />
          </mxGeometry>
        </mxCell>
        <mxCell id="MKVrQmzyJk6rCKhsBumI-19" value="id string primary key" style="text;strokeColor=none;fillColor=none;align=left;verticalAlign=middle;spacingLeft=4;spacingRight=4;overflow=hidden;points=[[0,0.5],[1,0.5]];portConstraint=eastwest;rotatable=0;whiteSpace=wrap;html=1;sketch=1;curveFitting=1;jiggle=2;labelBackgroundColor=none;rounded=1;" parent="MKVrQmzyJk6rCKhsBumI-14" vertex="1">
          <mxGeometry y="30" width="140" height="30" as="geometry" />
        </mxCell>
        <mxCell id="MKVrQmzyJk6rCKhsBumI-15" value="mail string" style="text;strokeColor=none;fillColor=none;align=left;verticalAlign=middle;spacingLeft=4;spacingRight=4;overflow=hidden;points=[[0,0.5],[1,0.5]];portConstraint=eastwest;rotatable=0;whiteSpace=wrap;html=1;sketch=1;curveFitting=1;jiggle=2;labelBackgroundColor=none;rounded=1;" parent="MKVrQmzyJk6rCKhsBumI-14" vertex="1">
          <mxGeometry y="60" width="140" height="30" as="geometry" />
        </mxCell>
        <mxCell id="MKVrQmzyJk6rCKhsBumI-16" value="username string" style="text;strokeColor=none;fillColor=none;align=left;verticalAlign=middle;spacingLeft=4;spacingRight=4;overflow=hidden;points=[[0,0.5],[1,0.5]];portConstraint=eastwest;rotatable=0;whiteSpace=wrap;html=1;sketch=1;curveFitting=1;jiggle=2;labelBackgroundColor=none;rounded=1;" parent="MKVrQmzyJk6rCKhsBumI-14" vertex="1">
          <mxGeometry y="90" width="140" height="30" as="geometry" />
        </mxCell>
        <mxCell id="MKVrQmzyJk6rCKhsBumI-27" value="password string" style="text;strokeColor=none;fillColor=none;align=left;verticalAlign=middle;spacingLeft=4;spacingRight=4;overflow=hidden;points=[[0,0.5],[1,0.5]];portConstraint=eastwest;rotatable=0;whiteSpace=wrap;html=1;sketch=1;curveFitting=1;jiggle=2;labelBackgroundColor=none;rounded=1;" parent="MKVrQmzyJk6rCKhsBumI-14" vertex="1">
          <mxGeometry y="120" width="140" height="30" as="geometry" />
        </mxCell>
        <mxCell id="MKVrQmzyJk6rCKhsBumI-20" value="Currently_playing" style="text;strokeColor=none;fillColor=none;align=left;verticalAlign=middle;spacingLeft=4;spacingRight=4;overflow=hidden;points=[[0,0.5],[1,0.5]];portConstraint=eastwest;rotatable=0;whiteSpace=wrap;html=1;sketch=1;curveFitting=1;jiggle=2;labelBackgroundColor=none;rounded=1;" parent="MKVrQmzyJk6rCKhsBumI-14" vertex="1">
          <mxGeometry y="150" width="140" height="30" as="geometry" />
        </mxCell>
        <mxCell id="MKVrQmzyJk6rCKhsBumI-18" value="Om jeg skulle designa spotify db" style="text;html=1;align=center;verticalAlign=middle;whiteSpace=wrap;rounded=1;sketch=1;curveFitting=1;jiggle=2;labelBackgroundColor=none;" parent="1" vertex="1">
          <mxGeometry x="47" y="250" width="200" height="30" as="geometry" />
        </mxCell>
        <mxCell id="MKVrQmzyJk6rCKhsBumI-21" value="currently_playing" style="swimlane;fontStyle=0;childLayout=stackLayout;horizontal=1;startSize=30;horizontalStack=0;resizeParent=1;resizeParentMax=0;resizeLast=0;collapsible=1;marginBottom=0;whiteSpace=wrap;html=1;sketch=1;curveFitting=1;jiggle=2;labelBackgroundColor=none;rounded=1;" parent="1" vertex="1">
          <mxGeometry x="260" y="290" width="140" height="210" as="geometry" />
        </mxCell>
        <mxCell id="MKVrQmzyJk6rCKhsBumI-22" value="id string primary key" style="text;strokeColor=none;fillColor=none;align=left;verticalAlign=middle;spacingLeft=4;spacingRight=4;overflow=hidden;points=[[0,0.5],[1,0.5]];portConstraint=eastwest;rotatable=0;whiteSpace=wrap;html=1;sketch=1;curveFitting=1;jiggle=2;labelBackgroundColor=none;rounded=1;" parent="MKVrQmzyJk6rCKhsBumI-21" vertex="1">
          <mxGeometry y="30" width="140" height="30" as="geometry" />
        </mxCell>
        <mxCell id="MKVrQmzyJk6rCKhsBumI-23" value="user_id string referencing(user.id)" style="text;strokeColor=none;fillColor=none;align=left;verticalAlign=middle;spacingLeft=4;spacingRight=4;overflow=hidden;points=[[0,0.5],[1,0.5]];portConstraint=eastwest;rotatable=0;whiteSpace=wrap;html=1;sketch=1;curveFitting=1;jiggle=2;labelBackgroundColor=none;rounded=1;" parent="MKVrQmzyJk6rCKhsBumI-21" vertex="1">
          <mxGeometry y="60" width="140" height="30" as="geometry" />
        </mxCell>
        <mxCell id="MKVrQmzyJk6rCKhsBumI-24" value="song_name string" style="text;strokeColor=none;fillColor=none;align=left;verticalAlign=middle;spacingLeft=4;spacingRight=4;overflow=hidden;points=[[0,0.5],[1,0.5]];portConstraint=eastwest;rotatable=0;whiteSpace=wrap;html=1;sketch=1;curveFitting=1;jiggle=2;labelBackgroundColor=none;rounded=1;" parent="MKVrQmzyJk6rCKhsBumI-21" vertex="1">
          <mxGeometry y="90" width="140" height="30" as="geometry" />
        </mxCell>
        <mxCell id="MKVrQmzyJk6rCKhsBumI-31" value="artists string[]" style="text;strokeColor=none;fillColor=none;align=left;verticalAlign=middle;spacingLeft=4;spacingRight=4;overflow=hidden;points=[[0,0.5],[1,0.5]];portConstraint=eastwest;rotatable=0;whiteSpace=wrap;html=1;sketch=1;curveFitting=1;jiggle=2;labelBackgroundColor=none;rounded=1;" parent="MKVrQmzyJk6rCKhsBumI-21" vertex="1">
          <mxGeometry y="120" width="140" height="30" as="geometry" />
        </mxCell>
        <mxCell id="MKVrQmzyJk6rCKhsBumI-33" value="is_playing bool" style="text;strokeColor=none;fillColor=none;align=left;verticalAlign=middle;spacingLeft=4;spacingRight=4;overflow=hidden;points=[[0,0.5],[1,0.5]];portConstraint=eastwest;rotatable=0;whiteSpace=wrap;html=1;sketch=1;curveFitting=1;jiggle=2;labelBackgroundColor=none;rounded=1;" parent="MKVrQmzyJk6rCKhsBumI-21" vertex="1">
          <mxGeometry y="150" width="140" height="30" as="geometry" />
        </mxCell>
        <mxCell id="MKVrQmzyJk6rCKhsBumI-34" value="progess u64" style="text;strokeColor=none;fillColor=none;align=left;verticalAlign=middle;spacingLeft=4;spacingRight=4;overflow=hidden;points=[[0,0.5],[1,0.5]];portConstraint=eastwest;rotatable=0;whiteSpace=wrap;html=1;sketch=1;curveFitting=1;jiggle=2;labelBackgroundColor=none;rounded=1;" parent="MKVrQmzyJk6rCKhsBumI-21" vertex="1">
          <mxGeometry y="180" width="140" height="30" as="geometry" />
        </mxCell>
        <mxCell id="MKVrQmzyJk6rCKhsBumI-30" style="edgeStyle=orthogonalEdgeStyle;rounded=1;orthogonalLoop=1;jettySize=auto;html=1;entryX=0;entryY=0.175;entryDx=0;entryDy=0;entryPerimeter=0;sketch=1;curveFitting=1;jiggle=2;labelBackgroundColor=none;fontColor=default;" parent="1" source="MKVrQmzyJk6rCKhsBumI-20" target="MKVrQmzyJk6rCKhsBumI-21" edge="1">
          <mxGeometry relative="1" as="geometry" />
        </mxCell>
        <mxCell id="MKVrQmzyJk6rCKhsBumI-32" style="edgeStyle=orthogonalEdgeStyle;rounded=1;orthogonalLoop=1;jettySize=auto;html=1;sketch=1;curveFitting=1;jiggle=2;labelBackgroundColor=none;fontColor=default;" parent="1" source="MKVrQmzyJk6rCKhsBumI-23" target="MKVrQmzyJk6rCKhsBumI-19" edge="1">
          <mxGeometry relative="1" as="geometry" />
        </mxCell>
        <mxCell id="MKVrQmzyJk6rCKhsBumI-42" style="edgeStyle=orthogonalEdgeStyle;rounded=0;sketch=1;hachureGap=4;jiggle=2;curveFitting=1;orthogonalLoop=1;jettySize=auto;html=1;fontFamily=Architects Daughter;fontSource=https%3A%2F%2Ffonts.googleapis.com%2Fcss%3Ffamily%3DArchitects%2BDaughter;" parent="1" source="MKVrQmzyJk6rCKhsBumI-35" target="MKVrQmzyJk6rCKhsBumI-41" edge="1">
          <mxGeometry relative="1" as="geometry" />
        </mxCell>
        <mxCell id="MKVrQmzyJk6rCKhsBumI-35" value="terminal vindu" style="rounded=0;whiteSpace=wrap;html=1;sketch=1;hachureGap=4;jiggle=2;curveFitting=1;fontFamily=Architects Daughter;fontSource=https%3A%2F%2Ffonts.googleapis.com%2Fcss%3Ffamily%3DArchitects%2BDaughter;" parent="1" vertex="1">
          <mxGeometry x="60" y="570" width="260" height="160" as="geometry" />
        </mxCell>
        <mxCell id="MKVrQmzyJk6rCKhsBumI-36" value="cli tool" style="text;html=1;align=center;verticalAlign=middle;whiteSpace=wrap;rounded=0;fontFamily=Architects Daughter;fontSource=https%3A%2F%2Ffonts.googleapis.com%2Fcss%3Ffamily%3DArchitects%2BDaughter;fontSize=17;" parent="1" vertex="1">
          <mxGeometry x="60" y="540" width="60" height="30" as="geometry" />
        </mxCell>
        <mxCell id="MKVrQmzyJk6rCKhsBumI-37" value="" style="endArrow=classic;html=1;rounded=0;sketch=1;hachureGap=4;jiggle=2;curveFitting=1;fontFamily=Architects Daughter;fontSource=https%3A%2F%2Ffonts.googleapis.com%2Fcss%3Ffamily%3DArchitects%2BDaughter;" parent="1" edge="1">
          <mxGeometry width="50" height="50" relative="1" as="geometry">
            <mxPoint x="64" y="721" as="sourcePoint" />
            <mxPoint x="74" y="721" as="targetPoint" />
          </mxGeometry>
        </mxCell>
        <mxCell id="MKVrQmzyJk6rCKhsBumI-38" value="kommando" style="text;html=1;align=center;verticalAlign=middle;whiteSpace=wrap;rounded=0;fontFamily=Architects Daughter;fontSource=https%3A%2F%2Ffonts.googleapis.com%2Fcss%3Ffamily%3DArchitects%2BDaughter;" parent="1" vertex="1">
          <mxGeometry x="75" y="706" width="60" height="30" as="geometry" />
        </mxCell>
        <mxCell id="MKVrQmzyJk6rCKhsBumI-41" value="terminal vindu" style="rounded=0;whiteSpace=wrap;html=1;sketch=1;hachureGap=4;jiggle=2;curveFitting=1;fontFamily=Architects Daughter;fontSource=https%3A%2F%2Ffonts.googleapis.com%2Fcss%3Ffamily%3DArchitects%2BDaughter;" parent="1" vertex="1">
          <mxGeometry x="380" y="570" width="260" height="160" as="geometry" />
        </mxCell>
        <mxCell id="MKVrQmzyJk6rCKhsBumI-43" value="" style="endArrow=classic;html=1;rounded=0;sketch=1;hachureGap=4;jiggle=2;curveFitting=1;fontFamily=Architects Daughter;fontSource=https%3A%2F%2Ffonts.googleapis.com%2Fcss%3Ffamily%3DArchitects%2BDaughter;" parent="1" edge="1">
          <mxGeometry width="50" height="50" relative="1" as="geometry">
            <mxPoint x="384" y="685" as="sourcePoint" />
            <mxPoint x="394" y="685" as="targetPoint" />
          </mxGeometry>
        </mxCell>
        <mxCell id="MKVrQmzyJk6rCKhsBumI-44" value="kommando" style="text;html=1;align=center;verticalAlign=middle;whiteSpace=wrap;rounded=0;fontFamily=Architects Daughter;fontSource=https%3A%2F%2Ffonts.googleapis.com%2Fcss%3Ffamily%3DArchitects%2BDaughter;" parent="1" vertex="1">
          <mxGeometry x="390" y="670" width="65" height="30" as="geometry" />
        </mxCell>
        <mxCell id="MKVrQmzyJk6rCKhsBumI-46" value="output" style="text;html=1;align=center;verticalAlign=middle;whiteSpace=wrap;rounded=0;fontFamily=Architects Daughter;fontSource=https%3A%2F%2Ffonts.googleapis.com%2Fcss%3Ffamily%3DArchitects%2BDaughter;" parent="1" vertex="1">
          <mxGeometry x="373" y="681" width="60" height="30" as="geometry" />
        </mxCell>
        <mxCell id="MKVrQmzyJk6rCKhsBumI-47" value="output" style="text;html=1;align=center;verticalAlign=middle;whiteSpace=wrap;rounded=0;fontFamily=Architects Daughter;fontSource=https%3A%2F%2Ffonts.googleapis.com%2Fcss%3Ffamily%3DArchitects%2BDaughter;" parent="1" vertex="1">
          <mxGeometry x="373" y="693" width="60" height="30" as="geometry" />
        </mxCell>
        <mxCell id="MKVrQmzyJk6rCKhsBumI-48" value="output" style="text;html=1;align=center;verticalAlign=middle;whiteSpace=wrap;rounded=0;fontFamily=Architects Daughter;fontSource=https%3A%2F%2Ffonts.googleapis.com%2Fcss%3Ffamily%3DArchitects%2BDaughter;" parent="1" vertex="1">
          <mxGeometry x="373" y="705" width="60" height="30" as="geometry" />
        </mxCell>
        <mxCell id="4xvD3y259pAifUt002aS-1" value="flytdiagram for å spille/pause sang" style="text;html=1;align=center;verticalAlign=middle;whiteSpace=wrap;rounded=0;fontFamily=Architects Daughter;fontSource=https%3A%2F%2Ffonts.googleapis.com%2Fcss%3Ffamily%3DArchitects%2BDaughter;fontSize=22;" vertex="1" parent="1">
          <mxGeometry x="47" y="750" width="385" height="30" as="geometry" />
        </mxCell>
        <mxCell id="4xvD3y259pAifUt002aS-7" style="edgeStyle=orthogonalEdgeStyle;rounded=0;sketch=1;hachureGap=4;jiggle=2;curveFitting=1;orthogonalLoop=1;jettySize=auto;html=1;entryX=0;entryY=0;entryDx=0;entryDy=0;fontFamily=Architects Daughter;fontSource=https%3A%2F%2Ffonts.googleapis.com%2Fcss%3Ffamily%3DArchitects%2BDaughter;" edge="1" parent="1" source="4xvD3y259pAifUt002aS-2" target="4xvD3y259pAifUt002aS-5">
          <mxGeometry relative="1" as="geometry" />
        </mxCell>
        <mxCell id="4xvD3y259pAifUt002aS-2" value="Skriv p" style="ellipse;whiteSpace=wrap;html=1;sketch=1;hachureGap=4;jiggle=2;curveFitting=1;fontFamily=Architects Daughter;fontSource=https%3A%2F%2Ffonts.googleapis.com%2Fcss%3Ffamily%3DArchitects%2BDaughter;" vertex="1" parent="1">
          <mxGeometry x="59" y="790" width="130" height="60" as="geometry" />
        </mxCell>
        <mxCell id="4xvD3y259pAifUt002aS-18" style="edgeStyle=orthogonalEdgeStyle;rounded=0;sketch=1;hachureGap=4;jiggle=2;curveFitting=1;orthogonalLoop=1;jettySize=auto;html=1;entryX=0;entryY=0;entryDx=0;entryDy=0;fontFamily=Architects Daughter;fontSource=https%3A%2F%2Ffonts.googleapis.com%2Fcss%3Ffamily%3DArchitects%2BDaughter;" edge="1" parent="1" source="4xvD3y259pAifUt002aS-3" target="4xvD3y259pAifUt002aS-14">
          <mxGeometry relative="1" as="geometry" />
        </mxCell>
        <mxCell id="4xvD3y259pAifUt002aS-3" value="gjør en req til api-en" style="rounded=0;whiteSpace=wrap;html=1;sketch=1;hachureGap=4;jiggle=2;curveFitting=1;fontFamily=Architects Daughter;fontSource=https%3A%2F%2Ffonts.googleapis.com%2Fcss%3Ffamily%3DArchitects%2BDaughter;" vertex="1" parent="1">
          <mxGeometry x="209" y="870" width="120" height="40" as="geometry" />
        </mxCell>
        <mxCell id="4xvD3y259pAifUt002aS-10" value="nei" style="edgeStyle=orthogonalEdgeStyle;rounded=0;sketch=1;hachureGap=4;jiggle=2;curveFitting=1;orthogonalLoop=1;jettySize=auto;html=1;entryX=0.5;entryY=0;entryDx=0;entryDy=0;fontFamily=Architects Daughter;fontSource=https%3A%2F%2Ffonts.googleapis.com%2Fcss%3Ffamily%3DArchitects%2BDaughter;" edge="1" parent="1" source="4xvD3y259pAifUt002aS-5" target="4xvD3y259pAifUt002aS-8">
          <mxGeometry relative="1" as="geometry" />
        </mxCell>
        <mxCell id="4xvD3y259pAifUt002aS-13" value="ja" style="edgeStyle=orthogonalEdgeStyle;rounded=0;sketch=1;hachureGap=4;jiggle=2;curveFitting=1;orthogonalLoop=1;jettySize=auto;html=1;entryX=0;entryY=0.25;entryDx=0;entryDy=0;fontFamily=Architects Daughter;fontSource=https%3A%2F%2Ffonts.googleapis.com%2Fcss%3Ffamily%3DArchitects%2BDaughter;" edge="1" parent="1" source="4xvD3y259pAifUt002aS-5" target="4xvD3y259pAifUt002aS-3">
          <mxGeometry relative="1" as="geometry" />
        </mxCell>
        <mxCell id="4xvD3y259pAifUt002aS-5" value="sjekker om en device er aktiv" style="whiteSpace=wrap;html=1;aspect=fixed;sketch=1;hachureGap=4;jiggle=2;curveFitting=1;fontFamily=Architects Daughter;fontSource=https%3A%2F%2Ffonts.googleapis.com%2Fcss%3Ffamily%3DArchitects%2BDaughter;rotation=45;" vertex="1" parent="1">
          <mxGeometry x="89" y="890" width="65" height="65" as="geometry" />
        </mxCell>
        <mxCell id="4xvD3y259pAifUt002aS-12" style="edgeStyle=orthogonalEdgeStyle;rounded=0;sketch=1;hachureGap=4;jiggle=2;curveFitting=1;orthogonalLoop=1;jettySize=auto;html=1;fontFamily=Architects Daughter;fontSource=https%3A%2F%2Ffonts.googleapis.com%2Fcss%3Ffamily%3DArchitects%2BDaughter;" edge="1" parent="1" source="4xvD3y259pAifUt002aS-8" target="4xvD3y259pAifUt002aS-11">
          <mxGeometry relative="1" as="geometry" />
        </mxCell>
        <mxCell id="4xvD3y259pAifUt002aS-8" value="print at ingen device er aktiv" style="rounded=0;whiteSpace=wrap;html=1;sketch=1;hachureGap=4;jiggle=2;curveFitting=1;fontFamily=Architects Daughter;fontSource=https%3A%2F%2Ffonts.googleapis.com%2Fcss%3Ffamily%3DArchitects%2BDaughter;" vertex="1" parent="1">
          <mxGeometry x="69" y="990" width="110" height="40" as="geometry" />
        </mxCell>
        <mxCell id="4xvD3y259pAifUt002aS-11" value="slutt" style="ellipse;whiteSpace=wrap;html=1;sketch=1;hachureGap=4;jiggle=2;curveFitting=1;fontFamily=Architects Daughter;fontSource=https%3A%2F%2Ffonts.googleapis.com%2Fcss%3Ffamily%3DArchitects%2BDaughter;" vertex="1" parent="1">
          <mxGeometry x="79.75" y="1050" width="83.5" height="40" as="geometry" />
        </mxCell>
        <mxCell id="4xvD3y259pAifUt002aS-20" value="nei" style="edgeStyle=orthogonalEdgeStyle;rounded=0;sketch=1;hachureGap=4;jiggle=2;curveFitting=1;orthogonalLoop=1;jettySize=auto;html=1;entryX=0;entryY=0.5;entryDx=0;entryDy=0;fontFamily=Architects Daughter;fontSource=https%3A%2F%2Ffonts.googleapis.com%2Fcss%3Ffamily%3DArchitects%2BDaughter;" edge="1" parent="1" source="4xvD3y259pAifUt002aS-14" target="4xvD3y259pAifUt002aS-19">
          <mxGeometry relative="1" as="geometry" />
        </mxCell>
        <mxCell id="4xvD3y259pAifUt002aS-24" value="ja" style="edgeStyle=orthogonalEdgeStyle;rounded=0;sketch=1;hachureGap=4;jiggle=2;curveFitting=1;orthogonalLoop=1;jettySize=auto;html=1;entryX=0.5;entryY=0;entryDx=0;entryDy=0;fontFamily=Architects Daughter;fontSource=https%3A%2F%2Ffonts.googleapis.com%2Fcss%3Ffamily%3DArchitects%2BDaughter;" edge="1" parent="1" source="4xvD3y259pAifUt002aS-14" target="4xvD3y259pAifUt002aS-22">
          <mxGeometry relative="1" as="geometry" />
        </mxCell>
        <mxCell id="4xvD3y259pAifUt002aS-14" value="sjekker om sangen spilles av" style="whiteSpace=wrap;html=1;aspect=fixed;sketch=1;hachureGap=4;jiggle=2;curveFitting=1;fontFamily=Architects Daughter;fontSource=https%3A%2F%2Ffonts.googleapis.com%2Fcss%3Ffamily%3DArchitects%2BDaughter;rotation=45;" vertex="1" parent="1">
          <mxGeometry x="236.5" y="940" width="65" height="65" as="geometry" />
        </mxCell>
        <mxCell id="4xvD3y259pAifUt002aS-23" style="edgeStyle=orthogonalEdgeStyle;rounded=0;sketch=1;hachureGap=4;jiggle=2;curveFitting=1;orthogonalLoop=1;jettySize=auto;html=1;entryX=1;entryY=0.5;entryDx=0;entryDy=0;fontFamily=Architects Daughter;fontSource=https%3A%2F%2Ffonts.googleapis.com%2Fcss%3Ffamily%3DArchitects%2BDaughter;" edge="1" parent="1" source="4xvD3y259pAifUt002aS-19" target="4xvD3y259pAifUt002aS-11">
          <mxGeometry relative="1" as="geometry">
            <Array as="points">
              <mxPoint x="330" y="975" />
              <mxPoint x="330" y="1030" />
              <mxPoint x="190" y="1030" />
              <mxPoint x="190" y="1070" />
            </Array>
          </mxGeometry>
        </mxCell>
        <mxCell id="4xvD3y259pAifUt002aS-19" value="spill av sang" style="rounded=0;whiteSpace=wrap;html=1;sketch=1;hachureGap=4;jiggle=2;curveFitting=1;fontFamily=Architects Daughter;fontSource=https%3A%2F%2Ffonts.googleapis.com%2Fcss%3Ffamily%3DArchitects%2BDaughter;" vertex="1" parent="1">
          <mxGeometry x="340" y="955" width="107" height="40" as="geometry" />
        </mxCell>
        <mxCell id="4xvD3y259pAifUt002aS-26" style="edgeStyle=orthogonalEdgeStyle;rounded=0;sketch=1;hachureGap=4;jiggle=2;curveFitting=1;orthogonalLoop=1;jettySize=auto;html=1;entryX=1;entryY=0.5;entryDx=0;entryDy=0;fontFamily=Architects Daughter;fontSource=https%3A%2F%2Ffonts.googleapis.com%2Fcss%3Ffamily%3DArchitects%2BDaughter;" edge="1" parent="1" source="4xvD3y259pAifUt002aS-22" target="4xvD3y259pAifUt002aS-11">
          <mxGeometry relative="1" as="geometry" />
        </mxCell>
        <mxCell id="4xvD3y259pAifUt002aS-22" value="pause sang" style="rounded=0;whiteSpace=wrap;html=1;sketch=1;hachureGap=4;jiggle=2;curveFitting=1;fontFamily=Architects Daughter;fontSource=https%3A%2F%2Ffonts.googleapis.com%2Fcss%3Ffamily%3DArchitects%2BDaughter;" vertex="1" parent="1">
          <mxGeometry x="215.5" y="1050" width="107" height="40" as="geometry" />
        </mxCell>
      </root>
    </mxGraphModel>
  </diagram>
</mxfile>
